<svg width="817" height="218" viewBox="0 0 817 218" fill="none" xmlns="http://www.w3.org/2000/svg">
<mask id="path-1-inside-1_308_1891" fill="white">
<path fill-rule="evenodd" clip-rule="evenodd" d="M8 0C3.58172 0 0 3.58173 0 8.00001V125C2.49512 125 4.9658 125.479 7.27098 126.408C9.57617 127.338 11.6707 128.701 13.435 130.419C15.1993 132.136 16.5989 134.176 17.5537 136.42C18.5085 138.665 19 141.071 19 143.5C19 145.929 18.5085 148.335 17.5537 150.58C16.5989 152.824 15.1993 154.864 13.435 156.581C11.6707 158.299 9.57617 159.662 7.27098 160.592C4.9658 161.521 2.49512 162 0 162V210C0 214.418 3.58171 218 7.99999 218H809C813.418 218 817 214.418 817 210V162C814.505 162 812.034 161.521 809.729 160.592C807.424 159.662 805.329 158.299 803.565 156.581C801.801 154.864 800.401 152.824 799.446 150.58C798.491 148.335 798 145.929 798 143.5C798 141.071 798.491 138.665 799.446 136.42C800.401 134.176 801.801 132.136 803.565 130.419C805.329 128.701 807.424 127.338 809.729 126.408C812.034 125.479 814.505 125 817 125V8C817 3.58172 813.418 0 809 0H8Z"/>
</mask>
<path fill-rule="evenodd" clip-rule="evenodd" d="M8 0C3.58172 0 0 3.58173 0 8.00001V125C2.49512 125 4.9658 125.479 7.27098 126.408C9.57617 127.338 11.6707 128.701 13.435 130.419C15.1993 132.136 16.5989 134.176 17.5537 136.42C18.5085 138.665 19 141.071 19 143.5C19 145.929 18.5085 148.335 17.5537 150.58C16.5989 152.824 15.1993 154.864 13.435 156.581C11.6707 158.299 9.57617 159.662 7.27098 160.592C4.9658 161.521 2.49512 162 0 162V210C0 214.418 3.58171 218 7.99999 218H809C813.418 218 817 214.418 817 210V162C814.505 162 812.034 161.521 809.729 160.592C807.424 159.662 805.329 158.299 803.565 156.581C801.801 154.864 800.401 152.824 799.446 150.58C798.491 148.335 798 145.929 798 143.5C798 141.071 798.491 138.665 799.446 136.42C800.401 134.176 801.801 132.136 803.565 130.419C805.329 128.701 807.424 127.338 809.729 126.408C812.034 125.479 814.505 125 817 125V8C817 3.58172 813.418 0 809 0H8Z" fill="#9BC9F7" fill-opacity="0.4"/>
<path d="M0 125H-1V126H0V125ZM7.27098 126.408L7.64502 125.481L7.64502 125.481L7.27098 126.408ZM13.435 130.419L14.1326 129.702L14.1326 129.702L13.435 130.419ZM17.5537 136.42L16.6335 136.812L16.6335 136.812L17.5537 136.42ZM17.5537 150.58L16.6335 150.188L16.6335 150.188L17.5537 150.58ZM13.435 156.581L14.1326 157.298L14.1326 157.298L13.435 156.581ZM7.27098 160.592L6.89695 159.664L6.89695 159.664L7.27098 160.592ZM0 162V161H-1V162H0ZM817 162H818V161H817V162ZM809.729 160.592L810.103 159.664L810.103 159.664L809.729 160.592ZM803.565 156.581L802.867 157.298L802.867 157.298L803.565 156.581ZM799.446 150.58L798.526 150.971L798.526 150.971L799.446 150.58ZM799.446 136.42L798.526 136.029L798.526 136.029L799.446 136.42ZM803.565 130.419L802.867 129.702L802.867 129.702L803.565 130.419ZM817 125V126H818V125H817ZM1 8.00001C1 4.13401 4.13401 1 8 1V-1C3.02944 -1 -1 3.02944 -1 8.00001H1ZM1 125V8.00001H-1V125H1ZM0 126C2.36744 126 4.7111 126.454 6.89695 127.336L7.64502 125.481C5.22049 124.503 2.62279 124 0 124V126ZM6.89695 127.336C9.08275 128.217 11.0671 129.509 12.7374 131.135L14.1326 129.702C12.2743 127.893 10.0696 126.459 7.64502 125.481L6.89695 127.336ZM12.7374 131.135C14.4076 132.761 15.7311 134.691 16.6335 136.812L18.4739 136.029C17.4667 133.661 15.991 131.512 14.1326 129.702L12.7374 131.135ZM16.6335 136.812C17.5359 138.933 18 141.206 18 143.5H20C20 140.935 19.4812 138.397 18.4739 136.029L16.6335 136.812ZM18 143.5C18 145.794 17.5359 148.067 16.6335 150.188L18.4739 150.971C19.4812 148.603 20 146.065 20 143.5H18ZM16.6335 150.188C15.7311 152.309 14.4076 154.239 12.7374 155.865L14.1326 157.298C15.991 155.488 17.4667 153.339 18.4739 150.971L16.6335 150.188ZM12.7374 155.865C11.0671 157.491 9.08275 158.783 6.89695 159.664L7.64502 161.519C10.0696 160.541 12.2743 159.107 14.1326 157.298L12.7374 155.865ZM6.89695 159.664C4.7111 160.546 2.36744 161 0 161V163C2.62279 163 5.22049 162.497 7.64502 161.519L6.89695 159.664ZM1 210V162H-1V210H1ZM7.99999 217C4.134 217 1 213.866 1 210H-1C-1 214.971 3.02943 219 7.99999 219V217ZM809 217H7.99999V219H809V217ZM816 210C816 213.866 812.866 217 809 217V219C813.971 219 818 214.971 818 210H816ZM816 162V210H818V162H816ZM817 161C814.633 161 812.289 160.546 810.103 159.664L809.355 161.519C811.779 162.497 814.377 163 817 163V161ZM810.103 159.664C807.917 158.783 805.933 157.491 804.263 155.865L802.867 157.298C804.726 159.107 806.93 160.541 809.355 161.519L810.103 159.664ZM804.263 155.865C802.592 154.239 801.269 152.309 800.366 150.188L798.526 150.971C799.533 153.339 801.009 155.488 802.867 157.298L804.263 155.865ZM800.366 150.188C799.464 148.067 799 145.794 799 143.5H797C797 146.065 797.519 148.603 798.526 150.971L800.366 150.188ZM799 143.5C799 141.206 799.464 138.933 800.366 136.812L798.526 136.029C797.519 138.397 797 140.935 797 143.5H799ZM800.366 136.812C801.269 134.691 802.592 132.761 804.263 131.135L802.867 129.702C801.009 131.512 799.533 133.661 798.526 136.029L800.366 136.812ZM804.263 131.135C805.933 129.509 807.917 128.217 810.103 127.336L809.355 125.481C806.93 126.459 804.726 127.893 802.867 129.702L804.263 131.135ZM810.103 127.336C812.289 126.454 814.633 126 817 126V124C814.377 124 811.779 124.503 809.355 125.481L810.103 127.336ZM816 8V125H818V8H816ZM809 1C812.866 1 816 4.134 816 8H818C818 3.02943 813.971 -1 809 -1V1ZM8 1H809V-1H8V1Z" fill="#007EF9" mask="url(#path-1-inside-1_308_1891)"/>
</svg>
